<?xml version="1.0" encoding="utf-8"?>
<!-- Generator: Adobe Illustrator 16.0.0, SVG Export Plug-In . SVG Version: 6.00 Build 0)  -->
<!DOCTYPE svg PUBLIC "-//W3C//DTD SVG 1.1//EN" "http://www.w3.org/Graphics/SVG/1.1/DTD/svg11.dtd">
<svg version="1.1" id="Layer_1" xmlns="http://www.w3.org/2000/svg" xmlns:xlink="http://www.w3.org/1999/xlink" x="0px" y="0px"
	 width="152px" height="32px" viewBox="0 0 152 32" enable-background="new 0 0 152 32" xml:space="preserve">
<title>Page 1</title>
<desc>Created with Sketch Beta.</desc>
<g>
	<path fill="#117F89" d="M0.534,24.613V5.523h5.9c1.993,0,3.507,0.444,4.543,1.331c1.036,0.887,1.554,2.188,1.554,3.9
		c0,0.97-0.214,1.805-0.643,2.504c-0.429,0.699-1.014,1.211-1.757,1.534c0.856,0.245,1.516,0.736,1.979,1.475
		s0.695,1.65,0.695,2.734c0,1.853-0.509,3.251-1.527,4.195c-1.019,0.944-2.493,1.416-4.425,1.416H0.534z M4.389,13.508h2.006
		c1.512,0,2.268-0.782,2.268-2.347c0-0.866-0.175-1.486-0.524-1.862c-0.35-0.376-0.918-0.564-1.705-0.564H4.389V13.508z
		 M4.389,16.314v5.1h2.465c0.69,0,1.215-0.214,1.574-0.643c0.358-0.428,0.538-1.036,0.538-1.822c0-1.713-0.621-2.592-1.862-2.635
		H4.389z"/>
	<path fill="#117F89" d="M25.459,16.353h-6.005v5.061h7.106v3.199H15.599V5.523h10.935v3.212h-7.08v4.51h6.005V16.353z"/>
	<path fill="#117F89" d="M41.402,8.735h-4.72v15.878h-3.868V8.735h-4.642V5.523h13.229V8.735z"/>
	<path fill="#117F89" d="M51.157,20.706h-5.258l-1.022,3.907h-4.078l5.966-19.09h3.527l6.005,19.09H52.18L51.157,20.706z
		 M46.739,17.494h3.566l-1.783-6.805L46.739,17.494z"/>
	<path fill="#117F89" d="M70.051,17.638h-1.915v6.976h-3.854V5.523h6.149c1.932,0,3.424,0.5,4.478,1.501s1.58,2.423,1.58,4.268
		c0,2.535-0.922,4.31-2.767,5.323l3.344,7.814v0.184h-4.144L70.051,17.638z M68.137,14.426h2.189c0.77,0,1.346-0.256,1.731-0.767
		c0.384-0.511,0.577-1.195,0.577-2.052c0-1.915-0.747-2.872-2.242-2.872h-2.255V14.426z"/>
	<path fill="#117F89" d="M92.577,16.786c0,2.561-0.605,4.549-1.816,5.965c-1.211,1.417-2.891,2.125-5.041,2.125
		c-2.142,0-3.824-0.702-5.048-2.104c-1.225-1.403-1.845-3.368-1.862-5.894v-3.265c0-2.622,0.607-4.67,1.822-6.143
		c1.215-1.473,2.902-2.209,5.062-2.209c2.124,0,3.798,0.724,5.021,2.17c1.224,1.447,1.845,3.477,1.862,6.09V16.786z M88.709,13.586
		c0-1.722-0.245-3.002-0.734-3.841c-0.489-0.839-1.25-1.259-2.281-1.259c-1.022,0-1.779,0.404-2.269,1.213s-0.743,2.039-0.761,3.69
		v3.396c0,1.669,0.25,2.899,0.748,3.69s1.267,1.187,2.308,1.187c1.005,0,1.752-0.387,2.242-1.16c0.489-0.773,0.738-1.974,0.747-3.6
		V13.586z"/>
	<path fill="#117F89" d="M101.072,5.261c1.679,0,2.987,0.463,3.927,1.389c0.939,0.926,1.41,2.184,1.41,3.774
		c0,0.874-0.192,1.668-0.577,2.385s-0.918,1.289-1.6,1.716c0.892,0.376,1.577,0.962,2.059,1.758c0.48,0.796,0.721,1.767,0.721,2.912
		c0,1.784-0.433,3.177-1.298,4.178c-0.865,1.002-2.067,1.503-3.605,1.503c-1.049,0-2.011-0.275-2.885-0.826v5.887h-3.697V11.135
		c0-1.722,0.526-3.131,1.58-4.229C98.159,5.81,99.481,5.261,101.072,5.261z M102.698,10.714c0-0.676-0.146-1.245-0.439-1.707
		s-0.688-0.692-1.187-0.692c-0.56,0-1.008,0.254-1.344,0.763c-0.337,0.509-0.505,1.181-0.505,2.014v10.148
		c0.533,0.387,1.206,0.579,2.02,0.579c0.629,0,1.129-0.255,1.501-0.766c0.371-0.511,0.558-1.148,0.558-1.914
		c0-1.998-0.678-2.998-2.033-2.998h-0.878v-2.779h0.747C102.178,13.311,102.698,12.428,102.698,10.714z"/>
	<path fill="#117F89" d="M122.93,16.786c0,2.561-0.605,4.549-1.816,5.965c-1.211,1.417-2.891,2.125-5.041,2.125
		c-2.142,0-3.824-0.702-5.048-2.104c-1.225-1.403-1.845-3.368-1.862-5.894v-3.265c0-2.622,0.607-4.67,1.822-6.143
		c1.215-1.473,2.902-2.209,5.062-2.209c2.124,0,3.798,0.724,5.021,2.17c1.224,1.447,1.845,3.477,1.862,6.09V16.786z M119.062,13.586
		c0-1.722-0.245-3.002-0.734-3.841c-0.489-0.839-1.25-1.259-2.281-1.259c-1.022,0-1.779,0.404-2.269,1.213s-0.743,2.039-0.761,3.69
		v3.396c0,1.669,0.25,2.899,0.748,3.69s1.267,1.187,2.308,1.187c1.005,0,1.752-0.387,2.242-1.16c0.489-0.773,0.738-1.974,0.747-3.6
		V13.586z"/>
	<path fill="#117F89" d="M136.946,8.735h-4.721v15.878h-3.867V8.735h-4.642V5.523h13.229V8.735z"/>
	<path fill="#117F89" d="M147.016,19.604c0-0.777-0.199-1.365-0.597-1.764c-0.397-0.397-1.121-0.811-2.17-1.239
		c-1.914-0.725-3.291-1.575-4.13-2.549s-1.259-2.126-1.259-3.455c0-1.608,0.57-2.9,1.711-3.875s2.59-1.462,4.347-1.462
		c1.171,0,2.216,0.247,3.134,0.741c0.917,0.494,1.623,1.191,2.117,2.091c0.493,0.9,0.74,1.923,0.74,3.068h-3.841
		c0-0.892-0.19-1.571-0.57-2.039c-0.381-0.467-0.93-0.702-1.646-0.702c-0.674,0-1.198,0.199-1.574,0.597
		c-0.375,0.398-0.563,0.933-0.563,1.606c0,0.524,0.21,0.999,0.63,1.422c0.419,0.424,1.162,0.863,2.229,1.318
		c1.862,0.673,3.215,1.499,4.058,2.478c0.844,0.979,1.266,2.225,1.266,3.736c0,1.661-0.529,2.959-1.587,3.895
		s-2.495,1.403-4.313,1.403c-1.232,0-2.355-0.254-3.369-0.761c-1.015-0.507-1.808-1.232-2.38-2.177s-0.858-2.059-0.858-3.344h3.867
		c0,1.102,0.214,1.901,0.643,2.399c0.429,0.499,1.128,0.748,2.098,0.748C146.343,21.742,147.016,21.029,147.016,19.604z"/>
</g>
</svg>
