<?xml version="1.0" encoding="utf-8"?>
<!-- Generator: Adobe Illustrator 16.0.0, SVG Export Plug-In . SVG Version: 6.00 Build 0)  -->
<!DOCTYPE svg PUBLIC "-//W3C//DTD SVG 1.1//EN" "http://www.w3.org/Graphics/SVG/1.1/DTD/svg11.dtd">
<svg version="1.1" id="Layer_1" xmlns="http://www.w3.org/2000/svg" xmlns:xlink="http://www.w3.org/1999/xlink" x="0px" y="0px"
	 width="182px" height="38px" viewBox="0 0 182 38" enable-background="new 0 0 182 38" xml:space="preserve">
<title>Page 1 Copy</title>
<desc>Created with Sketch Beta.</desc>
<g>
	<path fill="#117F89" d="M2.073,29.409V6.719h7.013c2.369,0,4.168,0.528,5.4,1.582c1.231,1.055,1.847,2.6,1.847,4.636
		c0,1.153-0.255,2.145-0.764,2.976c-0.509,0.832-1.206,1.439-2.088,1.823c1.018,0.291,1.802,0.875,2.353,1.753
		s0.826,1.961,0.826,3.249c0,2.203-0.605,3.865-1.815,4.987c-1.21,1.122-2.964,1.683-5.26,1.683H2.073z M6.654,16.21h2.384
		c1.797,0,2.696-0.93,2.696-2.79c0-1.028-0.208-1.766-0.624-2.213s-1.091-0.67-2.026-0.67H6.654V16.21z M6.654,19.545v6.062h2.93
		c0.821,0,1.444-0.254,1.87-0.764c0.426-0.509,0.639-1.23,0.639-2.166c0-2.036-0.738-3.08-2.213-3.132H6.654z"/>
	<path fill="#117F89" d="M31.697,19.592H24.56v6.015h8.446v3.803H19.979V6.719h12.997v3.818H24.56v5.36h7.137V19.592z"/>
	<path fill="#117F89" d="M50.647,10.538h-5.61v18.872H40.44V10.538h-5.517V6.719h15.724V10.538z"/>
	<path fill="#117F89" d="M62.241,24.766h-6.249l-1.215,4.644H49.93l7.091-22.69h4.192l7.137,22.69h-4.893L62.241,24.766z
		 M56.99,20.947h4.239l-2.12-8.088L56.99,20.947z"/>
	<path fill="#117F89" d="M84.697,21.119h-2.275v8.29H77.84V6.719h7.309c2.296,0,4.07,0.595,5.322,1.785s1.879,2.88,1.879,5.072
		c0,3.013-1.097,5.122-3.289,6.327l3.975,9.288v0.218H88.11L84.697,21.119z M82.422,17.301h2.603c0.914,0,1.6-0.304,2.057-0.912
		c0.457-0.608,0.686-1.42,0.686-2.439c0-2.275-0.888-3.413-2.665-3.413h-2.681V17.301z"/>
	<path fill="#117F89" d="M111.47,20.105c0,3.045-0.72,5.408-2.159,7.091c-1.438,1.683-3.436,2.524-5.991,2.524
		c-2.546,0-4.546-0.834-6-2.501c-1.454-1.668-2.192-4.002-2.213-7.005v-3.88c0-3.117,0.722-5.55,2.166-7.301
		s3.449-2.626,6.016-2.626c2.524,0,4.514,0.86,5.969,2.579c1.454,1.72,2.191,4.132,2.213,7.239V20.105z M106.872,16.303
		c0-2.046-0.291-3.568-0.873-4.566c-0.581-0.997-1.485-1.496-2.711-1.496c-1.216,0-2.114,0.481-2.696,1.441
		c-0.582,0.961-0.883,2.423-0.903,4.387v4.036c0,1.984,0.296,3.447,0.888,4.387c0.593,0.94,1.507,1.411,2.743,1.411
		c1.194,0,2.083-0.46,2.665-1.38c0.581-0.919,0.877-2.345,0.888-4.277V16.303z"/>
	<path fill="#117F89" d="M121.568,6.408c1.994,0,3.55,0.55,4.667,1.651c1.116,1.101,1.675,2.596,1.675,4.485
		c0,1.039-0.229,1.983-0.686,2.834c-0.457,0.852-1.091,1.532-1.901,2.041c1.06,0.447,1.875,1.143,2.447,2.089
		c0.571,0.946,0.856,2.1,0.856,3.462c0,2.12-0.514,3.775-1.542,4.966c-1.029,1.19-2.458,1.785-4.286,1.785
		c-1.246,0-2.39-0.327-3.428-0.981v6.997h-4.396V13.389c0-2.046,0.626-3.722,1.878-5.026C118.105,7.06,119.677,6.408,121.568,6.408z
		 M123.5,12.89c0-0.804-0.174-1.48-0.521-2.028c-0.349-0.548-0.818-0.823-1.41-0.823c-0.665,0-1.198,0.303-1.598,0.908
		c-0.4,0.605-0.6,1.403-0.6,2.394v12.062c0.633,0.459,1.434,0.688,2.399,0.688c0.748,0,1.343-0.304,1.784-0.91
		s0.662-1.365,0.662-2.275c0-2.375-0.805-3.562-2.415-3.562h-1.044v-3.304h0.888C122.882,15.976,123.5,14.926,123.5,12.89z"/>
	<path fill="#117F89" d="M147.546,20.105c0,3.045-0.72,5.408-2.159,7.091c-1.438,1.683-3.436,2.524-5.991,2.524
		c-2.546,0-4.546-0.834-6-2.501c-1.454-1.668-2.192-4.002-2.213-7.005v-3.88c0-3.117,0.722-5.55,2.166-7.301
		s3.449-2.626,6.016-2.626c2.524,0,4.514,0.86,5.969,2.579c1.454,1.72,2.191,4.132,2.213,7.239V20.105z M142.948,16.303
		c0-2.046-0.291-3.568-0.873-4.566c-0.581-0.997-1.485-1.496-2.711-1.496c-1.216,0-2.114,0.481-2.696,1.441
		c-0.582,0.961-0.883,2.423-0.903,4.387v4.036c0,1.984,0.296,3.447,0.888,4.387c0.593,0.94,1.507,1.411,2.743,1.411
		c1.194,0,2.083-0.46,2.665-1.38c0.581-0.919,0.877-2.345,0.888-4.277V16.303z"/>
	<path fill="#117F89" d="M164.205,10.538h-5.61v18.872h-4.597V10.538h-5.517V6.719h15.724V10.538z"/>
	<path fill="#117F89" d="M176.173,23.456c0-0.925-0.236-1.623-0.709-2.096s-1.332-0.964-2.579-1.473
		c-2.275-0.862-3.911-1.873-4.909-3.031c-0.997-1.158-1.496-2.527-1.496-4.106c0-1.912,0.678-3.447,2.034-4.605
		c1.355-1.159,3.077-1.738,5.166-1.738c1.392,0,2.634,0.293,3.725,0.88c1.091,0.587,1.93,1.416,2.517,2.486s0.88,2.286,0.88,3.646
		h-4.565c0-1.06-0.227-1.867-0.678-2.423c-0.452-0.556-1.104-0.833-1.956-0.833c-0.8,0-1.424,0.236-1.87,0.709
		s-0.67,1.109-0.67,1.909c0,0.624,0.249,1.187,0.748,1.691c0.498,0.504,1.382,1.026,2.649,1.566c2.213,0.8,3.82,1.782,4.823,2.945
		c1.002,1.164,1.503,2.644,1.503,4.441c0,1.975-0.628,3.517-1.885,4.629c-1.258,1.111-2.967,1.667-5.127,1.667
		c-1.466,0-2.801-0.302-4.006-0.903c-1.205-0.603-2.147-1.465-2.828-2.587s-1.021-2.447-1.021-3.975h4.597
		c0,1.31,0.255,2.26,0.764,2.853c0.509,0.592,1.341,0.888,2.494,0.888C175.373,25.996,176.173,25.149,176.173,23.456z"/>
</g>
</svg>
