<?xml version="1.0" encoding="utf-8"?>
<!-- Generator: Adobe Illustrator 16.0.0, SVG Export Plug-In . SVG Version: 6.00 Build 0)  -->
<!DOCTYPE svg PUBLIC "-//W3C//DTD SVG 1.1//EN" "http://www.w3.org/Graphics/SVG/1.1/DTD/svg11.dtd">
<svg version="1.1" id="Layer_1" xmlns="http://www.w3.org/2000/svg" xmlns:xlink="http://www.w3.org/1999/xlink" x="0px" y="0px"
	 width="67px" height="67px" viewBox="0 0 67 67" enable-background="new 0 0 67 67" xml:space="preserve">
<path fill="#717272" d="M46.963,44.904v-8.931c0-4.785-2.555-7.011-5.959-7.011c-2.747,0-3.979,1.512-4.666,2.573v-2.207h-5.177
	c0.068,1.461,0,15.575,0,15.575h5.177v-8.699c0-0.463,0.033-0.929,0.171-1.26c0.374-0.931,1.225-1.895,2.654-1.895
	c1.875,0,2.623,1.429,2.623,3.521v8.335h5.177V44.904z M25.706,27.203c1.805,0,2.93-1.197,2.93-2.692
	c-0.034-1.527-1.125-2.69-2.896-2.69c-1.77,0-2.928,1.163-2.928,2.69c0,1.495,1.124,2.692,2.861,2.692H25.706z M34.125,57
	C21.492,57,11.25,46.758,11.25,34.125c0-12.634,10.242-22.875,22.875-22.875C46.758,11.25,57,21.491,57,34.125
	C57,46.758,46.758,57,34.125,57z M28.295,44.904V29.329h-5.177v15.575H28.295z"/>
</svg>
