<?xml version="1.0" encoding="utf-8"?>
<!-- Generator: Adobe Illustrator 16.0.0, SVG Export Plug-In . SVG Version: 6.00 Build 0)  -->
<!DOCTYPE svg PUBLIC "-//W3C//DTD SVG 1.1//EN" "http://www.w3.org/Graphics/SVG/1.1/DTD/svg11.dtd">
<svg version="1.1" id="Layer_1" xmlns="http://www.w3.org/2000/svg" xmlns:xlink="http://www.w3.org/1999/xlink" x="0px" y="0px"
	 width="67px" height="67px" viewBox="0 0 67 67" enable-background="new 0 0 67 67" xml:space="preserve">
<path fill="#717272" d="M37.328,25.622c-1.983,0.72-3.236,2.583-3.094,4.619l0.047,0.786l-0.794-0.096
	c-2.886-0.37-5.41-1.62-7.552-3.722l-1.048-1.043l-0.269,0.77c-0.571,1.717-0.207,3.531,0.984,4.749
	c0.634,0.674,0.491,0.771-0.602,0.369c-0.382-0.127-0.715-0.223-0.748-0.176c-0.11,0.113,0.27,1.573,0.571,2.15
	c0.414,0.803,1.253,1.588,2.174,2.053l0.778,0.369l-0.919,0.016c-0.888,0-0.92,0.018-0.825,0.355
	c0.318,1.043,1.571,2.149,2.967,2.631l0.984,0.337l-0.855,0.514c-1.271,0.74-2.762,1.154-4.253,1.185
	c-0.715,0.017-1.302,0.081-1.302,0.129c0,0.16,1.936,1.059,3.061,1.412c3.38,1.043,7.394,0.592,10.409-1.188
	c2.144-1.267,4.284-3.786,5.285-6.225c0.539-1.299,1.078-3.675,1.078-4.812c0-0.738,0.048-0.835,0.938-1.717
	c0.522-0.514,1.014-1.075,1.109-1.236c0.16-0.304,0.144-0.304-0.666-0.031c-1.349,0.481-1.54,0.417-0.874-0.305
	c0.493-0.514,1.08-1.443,1.08-1.716c0-0.048-0.237,0.032-0.508,0.175c-0.283,0.162-0.92,0.402-1.396,0.546l-0.856,0.273l-0.776-0.53
	c-0.429-0.289-1.031-0.609-1.349-0.705C39.296,25.333,38.057,25.365,37.328,25.622z M34.173,57.211
	c-12.546,0-22.717-10.17-22.717-22.717s10.171-22.717,22.717-22.717c12.547,0,22.717,10.17,22.717,22.717
	S46.72,57.211,34.173,57.211z"/>
</svg>
