<?xml version="1.0" encoding="UTF-8" standalone="no"?>
<!-- Generator: Adobe Illustrator 16.0.0, SVG Export Plug-In . SVG Version: 6.00 Build 0)  -->

<svg
   xmlns:dc="http://purl.org/dc/elements/1.1/"
   xmlns:cc="http://creativecommons.org/ns#"
   xmlns:rdf="http://www.w3.org/1999/02/22-rdf-syntax-ns#"
   xmlns:svg="http://www.w3.org/2000/svg"
   xmlns="http://www.w3.org/2000/svg"
   xmlns:sodipodi="http://sodipodi.sourceforge.net/DTD/sodipodi-0.dtd"
   xmlns:inkscape="http://www.inkscape.org/namespaces/inkscape"
   version="1.1"
   id="Layer_1"
   x="0px"
   y="0px"
   width="67px"
   height="67px"
   viewBox="0 0 67 67"
   enable-background="new 0 0 67 67"
   xml:space="preserve"
   inkscape:version="0.91 r13725"
   sodipodi:docname="youtube3.svg"><metadata
     id="metadata9"><rdf:RDF><cc:Work
         rdf:about=""><dc:format>image/svg+xml</dc:format><dc:type
           rdf:resource="http://purl.org/dc/dcmitype/StillImage" /><dc:title></dc:title></cc:Work></rdf:RDF></metadata><defs
     id="defs7" /><sodipodi:namedview
     pagecolor="#ffffff"
     bordercolor="#666666"
     borderopacity="1"
     objecttolerance="10"
     gridtolerance="10"
     guidetolerance="10"
     inkscape:pageopacity="0"
     inkscape:pageshadow="2"
     inkscape:window-width="1427"
     inkscape:window-height="854"
     id="namedview5"
     showgrid="false"
     inkscape:zoom="1.744786"
     inkscape:cx="-51.324484"
     inkscape:cy="31.779697"
     inkscape:window-x="110"
     inkscape:window-y="45"
     inkscape:window-maximized="0"
     inkscape:current-layer="Layer_1" /><path
     d="m 37.068132,25.60893 c -1.983,0.72 -3.236,2.583 -3.094,4.619 l 0.047,0.786 -0.794,-0.096 c -2.886,-0.37 -5.41,-1.62 -7.552,-3.722 l -1.048,-1.043 -0.269,0.77 c -0.571,1.717 -0.207,3.531 0.984,4.749 0.634,0.674 0.491,0.771 -0.602,0.369 -0.382,-0.127 -0.715,-0.223 -0.748,-0.176 -0.11,0.113 0.27,1.573 0.571,2.15 0.414,0.803 1.253,1.588 2.174,2.053 l 0.778,0.369 -0.919,0.016 c -0.888,0 -0.92,0.018 -0.825,0.355 0.318,1.043 1.571,2.149 2.967,2.631 l 0.984,0.337 -0.855,0.514 c -1.271,0.74 -2.762,1.154 -4.253,1.185 -0.715,0.017 -1.302,0.081 -1.302,0.129 0,0.16 1.936,1.059 3.061,1.412 3.38,1.043 7.394,0.592 10.409,-1.188 2.144,-1.267 4.284,-3.786 5.285,-6.225 0.539,-1.299 1.078,-3.675 1.078,-4.812 0,-0.738 0.048,-0.835 0.938,-1.717 0.522,-0.514 1.014,-1.075 1.109,-1.236 0.16,-0.304 0.144,-0.304 -0.666,-0.031 -1.349,0.481 -1.54,0.417 -0.874,-0.305 0.493,-0.514 1.08,-1.443 1.08,-1.716 0,-0.048 -0.237,0.032 -0.508,0.175 -0.283,0.162 -0.92,0.402 -1.396,0.546 l -0.856,0.273 -0.776,-0.53 c -0.429,-0.289 -1.031,-0.609 -1.349,-0.705 -0.811,-0.225 -2.05,-0.193 -2.779,0.064 z m -3.155,31.589 c -12.546,0 -22.717,-10.17 -22.717,-22.717 0,-12.547 10.171,-22.717 22.717,-22.717 12.547,0 22.717,10.17 22.717,22.717 0,12.547 -10.17,22.717 -22.717,22.717 z"
     id="path3"
     inkscape:connector-curvature="0"
     style="fill:#717272" /><circle
     style="fill:#717272;fill-opacity:1"
     cx="33.913132"
     cy="34.48093"
     id="circle3"
     r="23.006357" /><path
     inkscape:connector-curvature="0"
     style="fill:#ffffff"
     d="m 45.113134,28.98093 c 0,-0.1 0,-0.2 -0.1,-0.3 0,0 0,-0.1 0,-0.1 -0.3,-0.9 -1.1,-1.5 -2.1,-1.5 l 0.2,0 c 0,0 -3.900004,-0.6 -9.200004,-0.6 -5.2,0 -9.2,0.6 -9.2,0.6 l 0.2,0 c -1,0 -1.8,0.6 -2.1,1.5 0,0 0,0.1 0,0.1 0,0.1 0,0.2 -0.1,0.3 -0.1,1 -0.4,3.1 -0.4,5.5 0,2.4 0.3,4.5 0.4,5.5 0,0.1 0,0.2 0.1,0.3 0,0 0,0.1 0,0.1 0.3,0.9 1.1,1.5 2.1,1.5 l -0.2,0 c 0,0 3.9,0.6 9.2,0.6 5.2,0 9.200004,-0.6 9.200004,-0.6 l -0.2,0 c 1,0 1.8,-0.6 2.1,-1.5 0,0 0,-0.1 0,-0.1 0,-0.1 0,-0.2 0.1,-0.3 0.1,-1 0.4,-3.1 0.4,-5.5 0,-2.4 -0.2,-4.5 -0.4,-5.5 z m -7.800004,6 -4.7,3.4 c -0.1,0.1 -0.2,0.1 -0.3,0.1 -0.1,0 -0.2,0 -0.3,-0.1 -0.2,-0.1 -0.3,-0.3 -0.3,-0.5 l 0,-6.8 c 0,-0.2 0.1,-0.4 0.3,-0.5 0.2,-0.1 0.4,-0.1 0.6,0 l 4.7,3.4 c 0.1,0.1 0.2,0.3 0.2,0.5 0.1,0.2 0,0.4 -0.2,0.5 z"
     id="path5" /></svg>